<?xml version="1.0" encoding="UTF-8" standalone="no"?>
<svg
   version="1.1"
   id="Layer_1"
   x="0px"
   y="0px"
   width="100%"
   viewBox="0 0 512 512"
   enable-background="new 0 0 512 512"
   xml:space="preserve"
   sodipodi:docname="happy-face.svg"
   inkscape:version="1.1.2 (0a00cf5339, 2022-02-04)"
   xmlns:inkscape="http://www.inkscape.org/namespaces/inkscape"
   xmlns:sodipodi="http://sodipodi.sourceforge.net/DTD/sodipodi-0.dtd"
   xmlns="http://www.w3.org/2000/svg"
   xmlns:svg="http://www.w3.org/2000/svg"><defs
   id="defs1003" /><sodipodi:namedview
   id="namedview1001"
   pagecolor="#ffffff"
   bordercolor="#000000"
   borderopacity="0.25"
   inkscape:pageshadow="2"
   inkscape:pageopacity="0"
   inkscape:pagecheckerboard="true"
   showgrid="false"
   inkscape:zoom="1.5761719"
   inkscape:cx="255.68278"
   inkscape:cy="256"
   inkscape:window-width="1866"
   inkscape:window-height="1016"
   inkscape:window-x="0"
   inkscape:window-y="27"
   inkscape:window-maximized="1"
   inkscape:current-layer="Layer_1" />
<path
   fill="#FFDA24"
   opacity="1.000000"
   stroke="none"
   d=" M225.000000,1.000002   C246.020889,1.000000 267.041779,1.000000 288.192078,1.337677   C289.159393,2.114294 289.950989,2.767254 290.842133,2.960149   C304.738068,5.968003 318.792114,8.369378 332.516693,12.013987   C350.538391,16.799700 367.393494,24.567690 383.624237,33.831673   C399.364990,42.815987 414.270538,52.991776 427.486816,65.275238   C437.995514,75.042221 447.727814,85.744812 457.017151,96.699936   C470.917358,113.092804 481.888580,131.398102 490.659821,151.092514   C500.932831,174.158981 508.366699,197.938614 511.081726,223.113617   C511.156128,223.803360 512.335754,224.373886 513.000000,225.000000   C513.000000,225.750000 513.000000,226.500000 512.632019,227.679276   C511.533936,230.088242 510.407867,232.014526 510.132599,234.055557   C505.175385,270.806854 491.911957,304.458160 472.171906,335.653412   C457.174896,359.353241 438.151154,379.461975 416.449005,397.114716   C395.874481,413.850250 373.046478,426.626404 348.303040,436.084320   C328.159790,443.783875 307.411652,448.649353 285.966614,451.242737   C264.672058,453.817932 243.459244,453.633026 222.371841,450.677185   C193.014679,446.562164 165.096924,437.636841 138.638779,423.941498   C107.545082,407.846710 81.094780,386.047302 59.032459,359.196716   C29.023764,322.675201 10.343246,280.857269 3.815134,233.816696   C3.533416,231.786667 1.967626,229.934845 0.999999,228.000000   C1.000000,226.933334 1.000000,225.866653 1.337751,224.731766   C2.105987,223.992249 2.796880,223.367325 2.925960,222.642365   C4.006536,216.573456 4.853269,210.461090 6.014800,204.408722   C11.275798,176.995178 21.322710,151.320129 35.393784,127.328926   C50.093376,102.266090 68.814163,80.472748 90.897339,61.497707   C105.024651,49.358772 120.250328,38.828297 136.646835,30.216850   C163.767456,15.973110 192.468948,6.262364 223.115356,2.918484   C223.805145,2.843218 224.374481,1.664174 225.000000,1.000002  M370.381561,235.147842   C365.121094,233.869003 359.864868,231.497910 354.599487,231.477371   C289.466553,231.223206 224.331909,231.211823 159.199234,231.495377   C153.804718,231.518860 148.421509,234.136887 142.376495,235.841629   C133.551132,241.594498 129.521652,249.826553 129.591690,260.266418   C129.718567,279.177643 133.773148,297.206238 142.059769,314.181763   C150.779907,332.045349 162.531815,347.538849 179.068665,359.892731   C199.991928,377.159882 224.520996,385.288452 251.137192,386.839233   C275.197205,388.241089 298.061768,382.724365 319.125336,370.835571   C324.823883,367.619202 329.877960,363.261108 335.885681,359.191986   C368.426117,333.117676 384.475006,299.109741 384.275787,257.534332   C384.229645,247.902237 379.316956,240.446762 370.381561,235.147842  M395.065826,127.438614   C390.395416,123.181763 386.033356,118.512627 380.996521,114.745667   C366.105438,103.608856 349.699005,98.312004 331.330353,104.686935   C310.653931,111.862801 296.529175,126.911003 285.340607,144.991516   C283.808258,147.467789 283.464264,151.089111 283.626678,154.123749   C284.031677,161.692154 289.217621,167.547119 296.485901,169.542709   C303.347473,171.426620 310.276215,168.691833 315.112823,162.935913   C320.868927,156.085800 326.482910,148.953690 333.155548,143.075607   C342.439453,134.897171 350.790314,134.847595 360.018707,142.874893   C366.601654,148.601059 372.309448,155.450729 377.794678,162.290710   C384.139008,170.201996 394.046692,172.535629 402.093445,167.203384   C410.165955,161.854065 412.487030,151.504837 407.009369,143.051468   C403.583679,137.764786 399.394775,132.972641 395.065826,127.438614  M209.231766,169.718109   C216.825226,170.960266 223.178864,168.795547 227.526001,162.336365   C231.480347,156.460815 231.894669,149.972244 228.133530,143.948624   C218.732193,128.891998 206.826797,116.256660 190.841934,108.017754   C178.476913,101.644585 165.466766,99.901703 152.184570,104.562111   C131.384415,111.860374 117.087807,126.853149 105.842018,145.139755   C104.684601,147.021835 104.235519,149.538879 104.083107,151.803391   C103.561790,159.548569 108.405495,166.520294 115.792397,169.110748   C123.356033,171.763184 130.626022,168.971710 136.115540,162.445938   C142.179855,155.236862 148.322693,147.891800 155.491211,141.867050   C163.629807,135.026993 170.870056,135.068054 179.072372,141.823273   C185.922577,147.464935 191.378525,154.769577 197.754333,161.029755   C200.973938,164.190979 204.863770,166.669601 209.231766,169.718109  z"
   id="path978" />
<path
   fill="#FFC024"
   opacity="1.000000"
   stroke="none"
   d=" M0.999999,228.468658   C1.967626,229.934845 3.533416,231.786667 3.815134,233.816696   C10.343246,280.857269 29.023764,322.675201 59.032459,359.196716   C81.094780,386.047302 107.545082,407.846710 138.638779,423.941498   C165.096924,437.636841 193.014679,446.562164 222.371841,450.677185   C243.459244,453.633026 264.672058,453.817932 285.966614,451.242737   C307.411652,448.649353 328.159790,443.783875 348.303040,436.084320   C373.046478,426.626404 395.874481,413.850250 416.449005,397.114716   C438.151154,379.461975 457.174896,359.353241 472.171906,335.653412   C491.911957,304.458160 505.175385,270.806854 510.132599,234.055557   C510.407867,232.014526 511.533936,230.088242 512.632019,228.054276   C513.000000,248.020889 513.000000,268.041779 512.656616,288.198273   C511.878662,289.175598 511.234406,289.971924 511.040833,290.865875   C508.031799,304.761017 505.613922,318.809692 501.984711,332.538757   C497.257080,350.423004 489.552429,367.152893 480.406281,383.268280   C471.467407,399.018372 461.424438,414.064117 449.028290,427.136078   C437.366913,439.433197 424.814453,451.073792 411.557220,461.625122   C391.454254,477.624817 368.926575,489.674103 344.564392,498.167328   C327.096008,504.257263 309.434143,509.404480 290.910248,511.085785   C290.221252,511.148315 289.634430,512.336426 289.000000,513.000000   C267.979095,513.000000 246.958206,513.000000 225.800293,512.656311   C224.821609,511.878296 224.021774,511.200562 223.131775,511.047607   C214.982651,509.647217 206.719589,508.766998 198.675613,506.923889   C171.525696,500.703217 145.978012,490.277985 122.324348,475.623291   C99.467529,461.462280 79.441803,443.897034 61.837486,423.484680   C49.675827,409.383209 39.126789,394.194794 30.490355,377.812958   C16.121803,350.558289 6.220261,321.751221 2.916809,290.908356   C2.842202,290.211792 1.663621,289.633484 1.000001,289.000000   C1.000000,268.979095 1.000000,248.958206 0.999999,228.468658  z"
   id="path980" />




<path
   fill="#483635"
   opacity="1.000000"
   stroke="none"
   d=" M178.814011,359.290009   C162.531815,347.538849 150.779907,332.045349 142.059769,314.181763   C133.773148,297.206238 129.718567,279.177643 129.591690,260.266418   C129.521652,249.826553 133.551132,241.594498 142.804901,236.173523   C143.253006,238.503967 143.221893,240.504501 143.300278,242.500748   C144.057266,261.778839 158.029129,275.458984 177.331741,275.814392   C180.495438,275.872650 183.661087,275.825012 186.825836,275.825012   C236.295853,275.825165 285.765869,275.846802 335.235870,275.813232   C352.413818,275.801605 365.669403,266.278534 369.438782,250.801712   C370.643127,245.856689 370.483612,240.579498 370.948120,235.454285   C379.316956,240.446762 384.229645,247.902237 384.275787,257.534332   C384.475006,299.109741 368.426117,333.117676 335.428223,358.952087   C310.222321,327.488983 277.903595,314.985992 238.877045,321.565430   C214.010269,325.757690 193.764114,338.639801 178.814011,359.290009  z"
   id="path990" />
<path
   fill="#FDFDFC"
   opacity="1.000000"
   stroke="none"
   d=" M370.664856,235.301056   C370.483612,240.579498 370.643127,245.856689 369.438782,250.801712   C365.669403,266.278534 352.413818,275.801605 335.235870,275.813232   C285.765869,275.846802 236.295853,275.825165 186.825836,275.825012   C183.661087,275.825012 180.495438,275.872650 177.331741,275.814392   C158.029129,275.458984 144.057266,261.778839 143.300278,242.500748   C143.221893,240.504501 143.253006,238.503967 143.133179,236.027420   C148.421509,234.136887 153.804718,231.518860 159.199234,231.495377   C224.331909,231.211823 289.466553,231.223206 354.599487,231.477371   C359.864868,231.497910 365.121094,233.869003 370.664856,235.301056  z"
   id="path992" />
<path
   fill="#FE7E27"
   opacity="1.000000"
   stroke="none"
   d=" M178.941345,359.591370   C193.764114,338.639801 214.010269,325.757690 238.877045,321.565430   C277.903595,314.985992 310.222321,327.488983 335.099304,359.069611   C329.877960,363.261108 324.823883,367.619202 319.125336,370.835571   C298.061768,382.724365 275.197205,388.241089 251.137192,386.839233   C224.520996,385.288452 199.991928,377.159882 178.941345,359.591370  z"
   id="path994" />
<path
   fill="#483635"
   opacity="1.000000"
   stroke="none"
   d=" M395.307068,127.698608   C399.394775,132.972641 403.583679,137.764786 407.009369,143.051468   C412.487030,151.504837 410.165955,161.854065 402.093445,167.203384   C394.046692,172.535629 384.139008,170.201996 377.794678,162.290710   C372.309448,155.450729 366.601654,148.601059 360.018707,142.874893   C350.790314,134.847595 342.439453,134.897171 333.155548,143.075607   C326.482910,148.953690 320.868927,156.085800 315.112823,162.935913   C310.276215,168.691833 303.347473,171.426620 296.485901,169.542709   C289.217621,167.547119 284.031677,161.692154 283.626678,154.123749   C283.464264,151.089111 283.808258,147.467789 285.340607,144.991516   C296.529175,126.911003 310.653931,111.862801 331.330353,104.686935   C349.699005,98.312004 366.105438,103.608856 380.996521,114.745667   C386.033356,118.512627 390.395416,123.181763 395.307068,127.698608  z"
   id="path996" />
<path
   fill="#483635"
   opacity="1.000000"
   stroke="none"
   d=" M208.841156,169.587479   C204.863770,166.669601 200.973938,164.190979 197.754333,161.029755   C191.378525,154.769577 185.922577,147.464935 179.072372,141.823273   C170.870056,135.068054 163.629807,135.026993 155.491211,141.867050   C148.322693,147.891800 142.179855,155.236862 136.115540,162.445938   C130.626022,168.971710 123.356033,171.763184 115.792397,169.110748   C108.405495,166.520294 103.561790,159.548569 104.083107,151.803391   C104.235519,149.538879 104.684601,147.021835 105.842018,145.139755   C117.087807,126.853149 131.384415,111.860374 152.184570,104.562111   C165.466766,99.901703 178.476913,101.644585 190.841934,108.017754   C206.826797,116.256660 218.732193,128.891998 228.133530,143.948624   C231.894669,149.972244 231.480347,156.460815 227.526001,162.336365   C223.178864,168.795547 216.825226,170.960266 208.841156,169.587479  z"
   id="path998" />
</svg>
